<?xml version="1.0" encoding="UTF-8" standalone="no"?>
<svg
   xmlns:dc="http://purl.org/dc/elements/1.1/"
   xmlns:cc="http://creativecommons.org/ns#"
   xmlns:rdf="http://www.w3.org/1999/02/22-rdf-syntax-ns#"
   xmlns:svg="http://www.w3.org/2000/svg"
   xmlns="http://www.w3.org/2000/svg"
   xmlns:sodipodi="http://sodipodi.sourceforge.net/DTD/sodipodi-0.dtd"
   xmlns:inkscape="http://www.inkscape.org/namespaces/inkscape"
   version="1.0"
   width="24"
   height="24"
   viewBox="0 0 18 18"
   preserveAspectRatio="xMidYMid meet"
   id="svg10"
   sodipodi:docname="icon.svg"
   inkscape:version="1.0.1 (3bc2e813f5, 2020-09-07)">
  <metadata
     id="metadata16">
    <rdf:RDF>
      <cc:Work
         rdf:about="">
        <dc:format>image/svg+xml</dc:format>
        <dc:type
           rdf:resource="http://purl.org/dc/dcmitype/StillImage" />
        <dc:title></dc:title>
      </cc:Work>
    </rdf:RDF>
  </metadata>
  <defs
     id="defs14" />
  <sodipodi:namedview
     pagecolor="#ffffff"
     bordercolor="#666666"
     borderopacity="1"
     objecttolerance="10"
     gridtolerance="10"
     guidetolerance="10"
     inkscape:pageopacity="0"
     inkscape:pageshadow="2"
     inkscape:window-width="1366"
     inkscape:window-height="703"
     id="namedview12"
     showgrid="false"
     inkscape:zoom="0.8"
     inkscape:cx="-290.66666"
     inkscape:cy="-95.87448"
     inkscape:window-x="0"
     inkscape:window-y="0"
     inkscape:window-maximized="1"
     inkscape:current-layer="g8"
     fit-margin-top="0"
     fit-margin-left="0"
     fit-margin-right="0"
     fit-margin-bottom="0"
     units="px" />
  <g
     transform="matrix(0.1,0,0,-0.1,-227,264)"
     fill="#000000"
     stroke="none"
     id="g8">
    <path
       d="m 2304.7034,2634.3529 v -5.647 h -3.0509 -3.0508 v -2.8235 -2.8236 h -3.0509 -3.0508 v -2.8235 -2.8235 h -3.0508 -3.0509 v -2.8236 -2.8235 h -3.0508 -3.0509 v -8.4706 -8.4706 h 3.0509 3.0508 v -5.647 -5.6471 h 3.0509 3.0508 v -2.8235 -2.8235 h 9.1525 9.1526 v -14.1177 -14.1176 h -3.0509 -3.0508 v -8.4706 -8.4706 h 3.0508 3.0509 v -5.6471 -5.647 h -3.0509 -3.0508 v -2.8236 -2.8235 H 2292.5 2280.2966 v -2.8235 -2.8236 H 2275.1483 2270 v -2.8235 -2.8235 h 5.1483 5.1483 v 2.8235 2.8235 h 12.2034 12.2034 v -5.647 -5.6471 h -6.1017 -6.1017 v -14.1176 -14.1177 h -3.0508 -3.0509 v 2.8236 2.8235 h -3.0508 -3.0509 v -5.6471 -5.647 h -3.0508 -3.0509 V 2462.4706 2460 h 21.3559 21.356 v 13.7647 13.7647 h -3.0509 -3.0508 v 2.8235 2.8236 h 3.0508 3.0509 v 2.8235 2.8235 h 3.0508 3.0509 V 2479.4118 2460 h 12.2034 12.2034 v 2.4706 2.4706 h -3.0509 -3.0508 v 2.8235 2.8235 h -3.0509 -3.0508 v 8.4706 8.4706 h 3.0508 3.0509 v -5.647 -5.6471 h 3.0508 3.0509 v -2.8235 -2.8236 h 3.0508 3.0508 V 2465.2941 2460 H 2401.7585 2450 v 19.4118 19.4117 h -5.5297 -5.5296 v 5.6471 5.647 h 5.5296 5.5297 v 2.8236 2.8235 h -11.6314 -11.6313 v 2.8235 2.8236 h -6.1017 -6.1017 v 5.647 5.6471 h 3.0508 3.0509 v 5.647 5.6471 h 3.0508 3.0509 v 5.6471 5.647 h 3.0508 3.0509 v 5.6471 5.647 h 3.0508 3.0509 v 5.6471 5.6471 h -3.0509 -3.0508 v 5.647 5.6471 h 3.0508 3.0509 v 14.1176 14.1177 h -3.0509 -3.0508 v 8.4706 8.4705 h -3.0509 -3.0508 v 2.8236 2.8235 h -3.0509 -3.0508 v -2.8235 -2.8236 h 3.0508 3.0509 v -2.8235 -2.8235 h -6.1017 -6.1017 v 2.8235 2.8235 h -6.1017 -6.1017 v 2.8236 2.8235 h -15.2542 -15.2543 v -2.8235 -2.8236 h -12.2034 -12.2033 v 2.8236 2.8235 h -3.0509 -3.0508 v -2.8235 -2.8236 h -3.0509 -3.0508 v -2.8235 -2.8235 h -6.1017 -6.1017 v 2.8235 2.8235 h -3.0509 -3.0508 v -2.8235 -2.8235 h -3.0509 -3.0508 v 5.647 5.6471 h -3.0509 -3.0508 z m -6.1017,-22.5882 v -5.6471 h 3.0508 3.0509 v -2.8235 -2.8235 h 3.0508 3.0509 v 2.8235 2.8235 h 3.0508 3.0509 v -5.647 -5.6471 h -3.0509 -3.0508 V 2592 v -2.8235 h -3.0509 -3.0508 v 5.647 5.6471 h -3.0509 -3.0508 v -2.8235 -2.8236 h -6.1017 -6.1017 v 8.4706 8.4706 h 3.0509 3.0508 v 2.8235 2.8236 h 3.0508 3.0509 z M 2341.3136,2592 v -2.8235 h 3.0508 3.0509 v -2.8236 -2.8235 h 6.1016 6.1017 v -2.8235 -2.8235 h 3.0509 3.0508 v -2.8236 -2.8235 h 3.0509 3.0508 v -2.8235 -2.8236 h 3.0509 3.0508 v -16.9411 -16.9412 h 6.1017 6.1017 v 2.8235 2.8235 h 3.0509 3.0508 v 2.8236 2.8235 h 3.0509 3.0508 v 2.8235 2.8236 h 3.0509 3.0508 v 2.8235 2.8235 h 6.1017 6.1017 v -5.647 V 2544 h -3.0509 -3.0508 v -5.6471 -5.647 h -3.0508 -3.0509 v -2.8235 -2.8236 h -12.2034 -12.2034 v -2.8235 -2.8235 h 9.1526 9.1525 v -8.4706 -8.4706 h -3.0508 -3.0509 v -5.6471 -5.647 h -3.0508 -3.0509 v -5.6471 -5.647 h -3.0508 -3.0509 v -2.8236 -2.8235 h -9.1525 -9.1526 v 2.8235 2.8236 h -6.1017 -6.1017 v 2.8235 2.8235 h -3.0508 -3.0508 v 5.6471 5.647 h -12.2034 -12.2034 v 8.4706 8.4706 h 6.1017 6.1017 v 2.8235 2.8236 h -3.0509 -3.0508 v 2.8235 2.8235 h -3.0509 -3.0508 v 2.8236 2.8235 h 3.0508 3.0509 v 5.647 5.6471 h -6.1017 -6.1017 v -2.8235 -2.8236 h -3.0509 -3.0508 v 5.6471 5.6471 h 3.0508 3.0509 v 11.2941 11.2941 h 6.1017 6.1017 v 2.8235 2.8236 h 3.0508 3.0509 v 2.8235 2.8235 h -3.0509 -3.0508 v 2.8235 2.8236 h 3.0508 3.0509 v 2.8235 2.8235 h 3.0508 3.0509 z m -42.7119,-5.6471 v -2.8235 h -3.0509 -3.0508 v 2.8235 2.8236 h 3.0508 3.0509 z m 115.9322,-67.7647 v -2.8235 h 6.1017 6.1017 v -2.8235 -2.8236 h -6.1017 -6.1017 v 2.8236 2.8235 h -3.0508 -3.0509 v 2.8235 2.8236 h 3.0509 3.0508 z m -97.6271,-11.2941 v -8.4706 h -3.0509 -3.0508 v 5.6471 5.647 h -3.0509 -3.0508 v 2.8236 2.8235 h 6.1017 6.1017 z m 18.3051,-16.9412 v -2.8235 h -3.0509 -3.0508 v 2.8235 2.8236 h 3.0508 3.0509 z"
       id="path2"
       style="stroke-width:0.0366874" />
    <path
       d="m 2329.1102,2563.7647 v -8.4706 h 15.2542 15.2542 v 8.4706 8.4706 h -15.2542 -15.2542 z"
       id="path4"
       style="stroke-width:0.0366874" />
    <path
       d="m 2377.9237,2518.5882 v -2.8235 h -3.0508 -3.0509 v -2.8235 -2.8236 h -6.1017 -6.1017 v -2.8235 -2.8235 h -6.1017 -6.1016 v -2.8235 -2.8236 h 6.1016 6.1017 v 2.8236 2.8235 h 6.1017 6.1017 v 2.8235 2.8235 h 6.1017 6.1017 v 5.6471 5.6471 h -3.0508 -3.0509 z"
       id="path6"
       style="stroke-width:0.0366874" />
  </g>
</svg>
